<?xml version="1.0" encoding="UTF-8"?>
<svg id="Layer_1" xmlns="http://www.w3.org/2000/svg" xmlns:xlink="http://www.w3.org/1999/xlink" version="1.1" viewBox="0 0 1079 1080">
  <!-- Generator: Adobe Illustrator 29.6.0, SVG Export Plug-In . SVG Version: 2.1.1 Build 207)  -->
  <defs>
    <style>
      .st0 {
        fill: url(#linear-gradient1);
      }

      .st1 {
        fill: #34aff4;
      }

      .st2, .st3 {
        fill: #e80f42;
      }

      .st2, .st4 {
        isolation: isolate;
        opacity: 1;
      }

      .st4 {
        fill: url(#linear-gradient);
      }
    </style>
    <linearGradient id="linear-gradient" x1="704" y1="610.1" x2="408.8" y2="314.8" gradientUnits="userSpaceOnUse">
      <stop offset="0" stop-color="#bf1046" stop-opacity="1"/>
      <stop offset="1" stop-color="#e80f42" stop-opacity="1"/>
    </linearGradient>
    <linearGradient id="linear-gradient1" x1="372.9" y1="705" x2="372.9" y2="308" gradientUnits="userSpaceOnUse">
      <stop offset="0" stop-color="#32aae0"/>
      <stop offset="1" stop-color="#34aff4"/>
    </linearGradient>
  </defs>
  <polygon class="st1" points="335.9 173.5 410.1 173.5 429.9 126.6 410.8 80.9 335.7 80.9 317 127.4 335.9 173.5"/>
  <g>
    <g>
      <path class="st1" d="M215,847.6l21.4-106.8h36l-21.4,106.8h-36Z"/>
      <path class="st1" d="M274.5,847.6l21.4-106.8h29.6l40.1,65h-12.5l13-65h35.1l-21.4,106.8h-29.6l-40.1-65h12.5l-13,65h-35.1Z"/>
      <path class="st1" d="M426.5,847.6l15.7-78.9h-31.3l5.6-27.9h98.6l-5.6,27.9h-31.3l-15.7,78.9h-36Z"/>
      <path class="st1" d="M549.9,820.5h53.5l-5.5,27.2h-88.8l21.4-106.8h86.8l-5.5,27.2h-51.4l-10.5,52.5ZM555.5,780.5h47.6l-5.2,25.9h-47.6l5.2-25.9Z"/>
      <path class="st1" d="M617.9,847.6l21.4-106.8h47.9c14.1,0,25.1,3.1,32.8,9.2,7.7,6.2,11.6,14.8,11.6,25.9s-2.2,16.8-6.6,23.5c-4.4,6.7-10.7,12-18.8,15.7-8.1,3.8-17.6,5.6-28.6,5.6h-34.5l19.2-15.1-8.4,42h-36ZM661.4,809.9l-12.7-16.3h30.7c5,0,8.8-1.2,11.6-3.7,2.7-2.5,4.1-6,4.1-10.5s-1.2-6.6-3.6-8.3c-2.4-1.7-5.7-2.5-9.8-2.5h-27.9l19.2-16.8-11.6,58.1ZM683.2,847.6l-22-38.9h37.1l22.3,38.9h-37.4Z"/>
      <path class="st1" d="M737.7,847.6l21.4-106.8h29.6l40.1,65h-12.5l13-65h35.1l-21.4,106.8h-29.6l-40.1-65h12.5l-13,65h-35.1Z"/>
    </g>
    <g>
      <path class="st3" d="M377.4,970.9l15.1-76.3h11.6l34.5,59.2-4.4-.5,11.6-58.7h13.9l-15.1,76.3h-11.6l-34.4-59.2,4.4.5-11.7,58.7h-13.9Z"/>
      <path class="st3" d="M502.9,959h42.8l-2.4,11.9h-56.8l15.1-76.3h55.3l-2.4,11.9h-41.3l-10.4,52.5ZM508.3,926.3h37.7l-2.3,11.7h-37.7l2.3-11.7Z"/>
      <path class="st3" d="M580.7,970.9l15.1-76.3h29.2c9.2,0,16.2,2,21.2,6.1,5,4.1,7.5,9.7,7.5,16.9s-1.5,12-4.4,16.7c-2.9,4.7-7.1,8.3-12.5,10.8-5.4,2.5-11.8,3.8-19.2,3.8h-24.7l7.5-6.8-5.7,28.8h-14.1ZM600.1,943.7l-5-6.9h23c6.8,0,12-1.5,15.8-4.6,3.7-3.1,5.6-7.5,5.6-13.4s-1.4-7.2-4.2-9.3c-2.8-2-6.8-3.1-11.9-3.1h-22l7.4-7.1-8.8,44.3Z"/>
      <path class="st3" d="M665.2,970.9l49.2-76.3h13.9l18.8,76.3h-13.9l-15.8-69h5.6l-42.8,69h-15ZM684.5,953.2l5.9-11.1h40.8l1.8,11.1h-48.6Z"/>
      <path class="st3" d="M778.5,970.9l15.1-76.3h14.1l-12.8,64.3h39.6l-2.4,12h-53.6Z"/>
    </g>
    <polygon class="st4" points="409 190 673.5 535.6 665 696 408 369.6 409 190"/>
    <polygon class="st2" points="665 190 665 696 766.4 604.1 766.4 277.6 665 190"/>
    <path class="st0" d="M375.9,681.6l69.3-133.7-36.3-357.8s-73.3.3-73.5.3l-34.9,356.7,67.3,134.3c-2.3,1.3-3.9,3.9-3.9,6.8s2.9,7.2,6.7,7.8v-134.1c-14-.6-25.3-12.6-25.3-27.3s11.8-27.3,26.4-27.3,26.4,12.2,26.4,27.3-11.3,26.8-25.3,27.3v134.1c3.8-.5,6.7-3.8,6.7-7.8s-1.4-5.2-3.5-6.6Z"/>
  </g>
</svg>